<svg enable-background="new 0 0 700.4 328" viewBox="0 0 700.4 328" xmlns="http://www.w3.org/2000/svg" xmlns:xlink="http://www.w3.org/1999/xlink"><clipPath id="a"><path d="m-74.6-79h800v600h-800z"/></clipPath><g clip-path="url(#a)"><g fill="none"><path d="m-74.6-79h800v600h-800z"/><path d="m428.3 198.1h-18v-92.2"/><path d="m428.3 198.1h-18v-92.2" stroke="#000" stroke-dasharray="1 3" stroke-linejoin="round" stroke-miterlimit="10"/><path d="m540.3 198.1h-18v-92.2"/><path d="m540.3 198.1h-18v-92.2" stroke="#000" stroke-dasharray="1 3" stroke-linejoin="round" stroke-miterlimit="10"/><path d="m188.3 198.1h-18v-92.2"/><path d="m188.3 198.1h-18v-92.2" stroke="#000" stroke-dasharray="1 3" stroke-linejoin="round" stroke-miterlimit="10"/></g><path d="m183.7 241.6h86.4v62.3h-86.4z" fill="#cfe2f3"/><path d="m183.7 241.6h86.4v62.3h-86.4z" fill="none" stroke="#000" stroke-linejoin="round" stroke-miterlimit="10"/><path d="m210.3 279.7 5.1-13.4h1.9l5.5 13.4h-2l-1.5-4h-5.6l-1.5 4zm3.9-5.5h4.5l-1.4-3.7c-.4-1.1-.7-2-.9-2.8-.2.9-.4 1.7-.7 2.5zm9.8 9.2v-13.4h1.5v1.2c.4-.5.8-.9 1.2-1.1s1-.4 1.6-.4c.8 0 1.5.2 2.2.6.6.4 1.1 1 1.4 1.8s.5 1.6.5 2.5c0 1-.2 1.9-.5 2.7-.4.8-.9 1.4-1.5 1.8-.7.4-1.4.6-2.1.6-.5 0-1-.1-1.5-.3s-.8-.5-1.1-.9v4.7h-1.7zm1.5-8.5c0 1.2.2 2.2.8 2.8.5.6 1.1.9 1.8.9s1.4-.3 1.9-.9.8-1.6.8-2.9c0-1.2-.3-2.2-.8-2.8s-1.1-.9-1.8-.9-1.3.3-1.9 1c-.5.6-.8 1.5-.8 2.8zm8.9 8.5v-13.4h1.5v1.2c.4-.5.8-.9 1.2-1.1s1-.4 1.6-.4c.8 0 1.5.2 2.2.6.6.4 1.1 1 1.4 1.8s.5 1.6.5 2.5c0 1-.2 1.9-.5 2.7s-.9 1.4-1.5 1.8c-.7.4-1.4.6-2.1.6-.5 0-1-.1-1.5-.3s-.8-.5-1.1-.9v4.7h-1.7zm1.5-8.5c0 1.2.2 2.2.8 2.8.5.6 1.1.9 1.8.9s1.4-.3 1.9-.9.8-1.6.8-2.9c0-1.2-.3-2.2-.8-2.8s-1.1-.9-1.8-.9-1.3.3-1.9 1c-.6.6-.8 1.5-.8 2.8z"/><path d="m183.7 178.3h86.4v39.7h-86.4z" fill="#cfe2f3"/><path d="m183.7 178.3h86.4v39.7h-86.4z" fill="none" stroke="#000" stroke-linejoin="round" stroke-miterlimit="10"/><path d="m204.5 205.1v-13.4h5c.9 0 1.6 0 2 .1.6.1 1.2.3 1.6.6s.8.7 1.1 1.3.4 1.2.4 1.8c0 1.1-.4 2.1-1.1 2.9s-2 1.2-3.9 1.2h-3.4v5.4h-1.7zm1.8-7h3.5c1.1 0 2-.2 2.4-.6.5-.4.7-1 .7-1.8 0-.6-.1-1-.4-1.4s-.7-.7-1.1-.8c-.3-.1-.8-.1-1.6-.1h-3.4v4.7zm10.5 7v-9.7h1.5v1.5c.4-.7.7-1.1 1-1.4.3-.2.7-.3 1.1-.3.6 0 1.1.2 1.7.5l-.6 1.5c-.4-.2-.8-.4-1.2-.4s-.7.1-1 .3-.5.5-.6.9c-.2.6-.3 1.2-.3 1.9v5.1h-1.6zm5.6-4.9c0-1.8.5-3.1 1.5-4 .8-.7 1.8-1.1 3-1.1 1.3 0 2.4.4 3.3 1.3.8.9 1.3 2.1 1.3 3.6 0 1.2-.2 2.2-.6 2.9s-.9 1.3-1.6 1.7-1.5.6-2.3.6c-1.4 0-2.4-.4-3.3-1.3-.9-.8-1.3-2.1-1.3-3.7zm1.7 0c0 1.2.3 2.2.8 2.8s1.2.9 2 .9 1.5-.3 2-.9.8-1.6.8-2.8-.3-2.1-.8-2.7-1.2-.9-2-.9-1.5.3-2 .9c-.6.5-.8 1.5-.8 2.7zm8.2 4.9 3.5-5-3.3-4.6h2l1.5 2.3c.3.4.5.8.7 1.1.3-.4.5-.8.7-1.1l1.6-2.3h2l-3.3 4.5 3.6 5.1h-2l-2-3-.5-.8-2.5 3.8zm10.3 3.7-.2-1.5c.4.1.7.1.9.1.4 0 .7-.1.9-.2s.4-.3.5-.5.3-.6.5-1.2c0-.1.1-.2.1-.4l-3.7-9.7h1.8l2 5.6c.3.7.5 1.5.7 2.2.2-.8.4-1.5.7-2.2l2.1-5.6h1.6l-3.7 9.8c-.4 1.1-.7 1.8-.9 2.2-.3.5-.6.9-1 1.2s-.8.4-1.3.4c-.3 0-.6-.1-1-.2z"/><path d="m335.4 20.3h136.9v62.3h-136.9z" fill="#cfe2f3"/><path d="m335.4 20.3h136.9v62.3h-136.9z" fill="none" stroke="#000" stroke-linejoin="round" stroke-miterlimit="10"/><path d="m350.8 47.4v-13.4h2.7l3.2 9.5c.3.9.5 1.5.6 2 .2-.5.4-1.2.7-2.1l3.2-9.3h2.4v13.4h-1.7v-11.3l-3.9 11.2h-1.6l-3.9-11.4v11.4zm21.7-1.2c-.6.5-1.2.9-1.8 1.1s-1.2.3-1.8.3c-1.1 0-1.9-.3-2.5-.8s-.9-1.2-.9-2c0-.5.1-.9.3-1.3s.5-.7.8-.9c.4-.2.8-.4 1.2-.5.3-.1.8-.2 1.5-.2 1.3-.2 2.3-.3 2.9-.6 0-.2 0-.4 0-.4 0-.7-.2-1.1-.5-1.4-.4-.4-1-.5-1.9-.5-.8 0-1.3.1-1.7.4s-.6.7-.8 1.4l-1.6-.2c.1-.7.4-1.2.7-1.6s.8-.8 1.5-1c.6-.2 1.4-.3 2.2-.3s1.5.1 2 .3.9.4 1.1.7.4.7.5 1.1c.1.3.1.8.1 1.5v2.2c0 1.5 0 2.5.1 2.9s.2.8.4 1.2h-1.7c0-.6-.1-1-.1-1.4zm-.2-3.7c-.6.2-1.5.5-2.7.6-.7.1-1.2.2-1.4.3s-.5.3-.7.5c-.1.2-.2.5-.2.8 0 .4.2.8.5 1.1s.8.4 1.5.4c.6 0 1.2-.1 1.7-.4s.9-.7 1.1-1.1.3-.9.3-1.6v-.6zm4.2 4.9v-9.7h1.5v1.4c.7-1.1 1.7-1.6 3.1-1.6.6 0 1.1.1 1.6.3s.9.5 1.1.8.4.7.5 1.2c.1.3.1.8.1 1.6v6h-1.6v-5.9c0-.7-.1-1.2-.2-1.5s-.3-.6-.7-.8c-.3-.2-.7-.3-1.1-.3-.7 0-1.3.2-1.8.7-.5.4-.8 1.3-.8 2.5v5.3zm16.7-1.2c-.6.5-1.2.9-1.8 1.1s-1.2.3-1.8.3c-1.1 0-1.9-.3-2.5-.8s-.9-1.2-.9-2c0-.5.1-.9.3-1.3s.5-.7.8-.9c.4-.2.8-.4 1.2-.5.3-.1.8-.2 1.5-.2 1.3-.2 2.3-.3 2.9-.6 0-.2 0-.4 0-.4 0-.7-.2-1.1-.5-1.4-.4-.4-1-.5-1.9-.5-.8 0-1.3.1-1.7.4s-.6.7-.8 1.4l-1.6-.2c.1-.7.4-1.2.7-1.6s.8-.8 1.5-1c.6-.2 1.4-.3 2.2-.3s1.5.1 2 .3.9.4 1.1.7.4.7.5 1.1c.1.3.1.8.1 1.5v2.2c0 1.5 0 2.5.1 2.9s.2.8.4 1.2h-1.7c.1-.6 0-1-.1-1.4zm-.1-3.7c-.6.2-1.5.5-2.7.6-.7.1-1.2.2-1.4.3s-.5.3-.7.5c-.1.2-.2.5-.2.8 0 .4.2.8.5 1.1s.8.4 1.5.4c.6 0 1.2-.1 1.7-.4s.9-.7 1.1-1.1.3-.9.3-1.6v-.6zm3.9 5.7 1.6.2c.1.5.3.9.6 1.1.4.3 1 .5 1.7.5.8 0 1.3-.2 1.8-.5.4-.3.7-.7.8-1.3.1-.3.1-1 .1-2.1-.7.8-1.6 1.3-2.7 1.3-1.3 0-2.4-.5-3.1-1.4-.7-1-1.1-2.1-1.1-3.5 0-.9.2-1.8.5-2.6s.8-1.4 1.5-1.8c.6-.4 1.4-.6 2.2-.6 1.1 0 2.1.5 2.8 1.4v-1.2h1.5v8.4c0 1.5-.2 2.6-.5 3.2s-.8 1.1-1.5 1.5-1.5.5-2.5.5c-1.1 0-2.1-.3-2.8-.8-.6-.5-1-1.3-.9-2.3zm1.3-5.8c0 1.3.2 2.2.8 2.8.5.6 1.1.9 1.9.9s1.4-.3 1.9-.9.8-1.5.8-2.7-.3-2.1-.8-2.7-1.2-.9-1.9-.9-1.3.3-1.9.9c-.5.5-.8 1.4-.8 2.6zm16 1.9 1.7.2c-.3 1-.8 1.8-1.5 2.3s-1.6.8-2.8.8c-1.4 0-2.5-.4-3.4-1.3-.8-.9-1.2-2.1-1.2-3.7s.4-2.9 1.2-3.8 1.9-1.3 3.3-1.3c1.3 0 2.3.4 3.2 1.3.8.9 1.2 2.1 1.2 3.7v.4h-7.2c.1 1.1.4 1.9.9 2.5s1.2.8 2 .8c.6 0 1.1-.2 1.5-.5.5-.2.8-.8 1.1-1.4zm-5.4-2.7h5.4c-.1-.8-.3-1.4-.6-1.8-.5-.6-1.2-1-2-1s-1.4.3-1.9.8c-.6.5-.9 1.2-.9 2zm9.1 5.8v-9.7h1.5v1.4c.3-.5.7-.9 1.2-1.1.5-.3 1.1-.4 1.7-.4.7 0 1.3.2 1.8.5s.8.7 1 1.2c.8-1.1 1.8-1.7 3-1.7 1 0 1.7.3 2.2.8s.8 1.3.8 2.5v6.6h-1.6v-6.1c0-.7-.1-1.1-.2-1.4s-.3-.5-.6-.7-.6-.3-1-.3c-.7 0-1.2.2-1.7.7-.4.4-.7 1.2-.7 2.2v5.6h-1.6v-6.3c0-.7-.1-1.3-.4-1.6-.3-.4-.7-.5-1.3-.5-.5 0-.9.1-1.3.4-.4.2-.7.6-.9 1.1s-.3 1.1-.2 2v5h-1.7zm22.2-3.1 1.7.2c-.3 1-.8 1.8-1.5 2.3s-1.6.8-2.8.8c-1.4 0-2.5-.4-3.4-1.3-.8-.9-1.2-2.1-1.2-3.7s.4-2.9 1.2-3.8 1.9-1.3 3.3-1.3c1.3 0 2.3.4 3.2 1.3.8.9 1.2 2.1 1.2 3.7v.4h-7.2c.1 1.1.4 1.9.9 2.5s1.2.8 2 .8c.6 0 1.1-.2 1.5-.5.5-.2.8-.8 1.1-1.4zm-5.4-2.7h5.4c-.1-.8-.3-1.4-.6-1.8-.5-.6-1.2-1-2-1s-1.4.3-1.9.8c-.6.5-.8 1.2-.9 2zm9.1 5.8v-9.7h1.5v1.4c.7-1.1 1.7-1.6 3.1-1.6.6 0 1.1.1 1.6.3s.9.5 1.1.8.4.7.5 1.2c.1.3.1.8.1 1.6v6h-1.6v-5.9c0-.7-.1-1.2-.2-1.5s-.3-.6-.7-.8c-.3-.2-.7-.3-1.1-.3-.7 0-1.3.2-1.8.7-.5.4-.8 1.3-.8 2.5v5.3zm14-1.5.2 1.5c-.5.1-.9.1-1.2.1-.6 0-1.1-.1-1.4-.3s-.6-.4-.7-.7-.2-1-.2-1.9v-5.6h-1.2v-1.3h1.2v-2.4l1.6-1v3.4h1.7v1.3h-1.7v5.7c0 .5 0 .8.1.9s.2.2.3.3.3.1.6.1c.2 0 .4-.1.7-.1z"/><path d="m358.8 64.7 1.8.5c-.4 1.4-1 2.6-2 3.3-1 .8-2.1 1.1-3.5 1.1s-2.6-.3-3.5-.9-1.6-1.4-2.1-2.5-.7-2.3-.7-3.6c0-1.4.3-2.6.8-3.6s1.3-1.8 2.3-2.4c1-.5 2.1-.8 3.2-.8 1.3 0 2.5.3 3.4 1s1.6 1.6 1.9 2.9l-1.7.4c-.3-1-.8-1.7-1.4-2.1s-1.3-.7-2.2-.7c-1 0-1.9.2-2.6.7s-1.2 1.2-1.5 2-.4 1.7-.4 2.6c0 1.1.2 2.1.5 3 .3.8.8 1.5 1.5 1.9s1.5.6 2.3.6c1 0 1.8-.3 2.5-.9s1.2-1.4 1.4-2.5zm3.1-.2c0-1.8.5-3.1 1.5-4 .8-.7 1.8-1.1 3-1.1 1.3 0 2.4.4 3.3 1.3.8.9 1.3 2.1 1.3 3.6 0 1.2-.2 2.2-.6 2.9s-.9 1.3-1.6 1.7-1.5.6-2.3.6c-1.4 0-2.4-.4-3.3-1.3-.9-.8-1.3-2-1.3-3.7zm1.7 0c0 1.2.3 2.2.8 2.8s1.2.9 2 .9 1.5-.3 2-.9.8-1.6.8-2.8-.3-2.1-.8-2.7-1.2-.9-2-.9-1.5.3-2 .9-.8 1.5-.8 2.7zm9.3 4.9v-9.7h1.5v1.4c.3-.5.7-.9 1.2-1.1.5-.3 1.1-.4 1.7-.4.7 0 1.3.2 1.8.5s.8.7 1 1.2c.8-1.1 1.8-1.7 3-1.7 1 0 1.7.3 2.2.8s.8 1.3.8 2.5v6.6h-1.6v-6.1c0-.7-.1-1.1-.2-1.4s-.3-.5-.6-.7-.6-.3-1-.3c-.7 0-1.2.2-1.7.7-.4.4-.7 1.2-.7 2.2v5.6h-1.6v-6.3c0-.7-.1-1.3-.4-1.6-.3-.4-.7-.5-1.3-.5-.5 0-.9.1-1.3.4-.4.2-.7.6-.9 1.1s-.2 1.1-.2 2v5h-1.7zm15.5 3.7v-13.4h1.5v1.2c.4-.5.8-.9 1.2-1.1s1-.4 1.6-.4c.8 0 1.5.2 2.2.6.6.4 1.1 1 1.4 1.8s.5 1.6.5 2.5c0 1-.2 1.9-.5 2.7-.4.8-.9 1.4-1.5 1.8-.7.4-1.4.6-2.1.6-.5 0-1-.1-1.5-.3s-.8-.5-1.1-.9v4.7h-1.7zm1.5-8.5c0 1.2.2 2.2.8 2.8.5.6 1.1.9 1.8.9s1.4-.3 1.9-.9.8-1.6.8-2.9c0-1.2-.3-2.2-.8-2.8s-1.1-.9-1.8-.9-1.3.3-1.9 1c-.5.6-.8 1.5-.8 2.8zm8.3-.1c0-1.8.5-3.1 1.5-4 .8-.7 1.8-1.1 3-1.1 1.3 0 2.4.4 3.3 1.3.8.9 1.3 2.1 1.3 3.6 0 1.2-.2 2.2-.6 2.9s-.9 1.3-1.6 1.7-1.5.6-2.3.6c-1.4 0-2.4-.4-3.3-1.3-.9-.8-1.3-2-1.3-3.7zm1.7 0c0 1.2.3 2.2.8 2.8s1.2.9 2 .9 1.5-.3 2-.9.8-1.6.8-2.8-.3-2.1-.8-2.7-1.2-.9-2-.9-1.5.3-2 .9-.8 1.5-.8 2.7zm9.3 4.9v-9.7h1.5v1.4c.7-1.1 1.7-1.6 3.1-1.6.6 0 1.1.1 1.6.3s.9.5 1.1.8c.3.3.4.7.5 1.2.1.3.1.8.1 1.6v6h-1.6v-5.9c0-.7-.1-1.2-.2-1.5s-.3-.6-.7-.8c-.3-.2-.7-.3-1.1-.3-.7 0-1.3.2-1.8.7-.5.4-.7 1.3-.8 2.5v5.3zm17-3.1 1.7.2c-.3 1-.8 1.8-1.5 2.3s-1.6.8-2.8.8c-1.4 0-2.5-.4-3.4-1.3-.8-.9-1.2-2.1-1.2-3.7s.4-2.9 1.2-3.8 1.9-1.3 3.3-1.3c1.3 0 2.3.4 3.2 1.3.8.9 1.2 2.1 1.2 3.7v.4h-7.2c.1 1.1.4 1.9.9 2.5s1.2.8 2 .8c.6 0 1.1-.2 1.5-.5.5-.2.8-.8 1.1-1.4zm-5.4-2.7h5.4c-.1-.8-.3-1.4-.6-1.8-.5-.6-1.2-1-2-1-.7 0-1.4.3-1.9.8-.6.5-.8 1.2-.9 2zm9.1 5.8v-9.7h1.5v1.4c.7-1.1 1.7-1.6 3.1-1.6.6 0 1.1.1 1.6.3s.9.5 1.1.8c.3.3.4.7.5 1.2.1.3.1.8.1 1.6v6h-1.6v-5.9c0-.7-.1-1.2-.2-1.5s-.3-.6-.7-.8c-.3-.2-.7-.3-1.1-.3-.7 0-1.3.2-1.8.7-.5.4-.8 1.3-.8 2.5v5.3zm14-1.5.2 1.5c-.5.1-.9.1-1.2.1-.6 0-1.1-.1-1.4-.3s-.6-.4-.7-.7-.2-1-.2-1.9v-5.6h-1.2v-1.3h1.2v-2.4l1.6-1v3.4h1.7v1.3h-1.7v5.7c0 .5 0 .8.1.9s.2.2.3.3.3.1.6.1c.2 0 .4-.1.7-.1zm7.3 1.5v-13.4h1.8v13.4zm5.2 0v-13.4h1.8v13.4z"/><path d="m183.4 20.3h136.9v62.3h-136.9z" fill="#cfe2f3"/><path d="m183.4 20.3h136.9v62.3h-136.9z" fill="none" stroke="#000" stroke-linejoin="round" stroke-miterlimit="10"/><path d="m198.8 47.4v-13.4h2.7l3.2 9.5c.3.9.5 1.5.6 2 .2-.5.4-1.2.7-2.1l3.2-9.3h2.4v13.4h-1.7v-11.3l-3.9 11.2h-1.6l-3.9-11.4v11.4zm21.7-1.2c-.6.5-1.2.9-1.8 1.1s-1.2.3-1.8.3c-1.1 0-1.9-.3-2.5-.8s-.9-1.2-.9-2c0-.5.1-.9.3-1.3s.5-.7.8-.9c.4-.2.8-.4 1.2-.5.3-.1.8-.2 1.5-.2 1.3-.2 2.3-.3 2.9-.6 0-.2 0-.4 0-.4 0-.7-.2-1.1-.5-1.4-.4-.4-1-.5-1.9-.5-.8 0-1.3.1-1.7.4s-.6.7-.8 1.4l-1.6-.2c.1-.7.4-1.2.7-1.6s.8-.8 1.5-1c.6-.2 1.4-.3 2.2-.3s1.5.1 2 .3.9.4 1.1.7.4.7.5 1.1c.1.3.1.8.1 1.5v2.2c0 1.5 0 2.5.1 2.9s.2.8.4 1.2h-1.7c0-.6-.1-1-.1-1.4zm-.2-3.7c-.6.2-1.5.5-2.7.6-.7.1-1.2.2-1.4.3s-.5.3-.7.5c-.1.2-.2.5-.2.8 0 .4.2.8.5 1.1s.8.4 1.5.4c.6 0 1.2-.1 1.7-.4s.9-.7 1.1-1.1.3-.9.3-1.6v-.6zm4.2 4.9v-9.7h1.5v1.4c.7-1.1 1.7-1.6 3.1-1.6.6 0 1.1.1 1.6.3s.9.5 1.1.8.4.7.5 1.2c.1.3.1.8.1 1.6v6h-1.6v-5.9c0-.7-.1-1.2-.2-1.5s-.3-.6-.7-.8c-.3-.2-.7-.3-1.1-.3-.7 0-1.3.2-1.8.7-.5.4-.8 1.3-.8 2.5v5.3zm16.7-1.2c-.6.5-1.2.9-1.8 1.1s-1.2.3-1.8.3c-1.1 0-1.9-.3-2.5-.8s-.9-1.2-.9-2c0-.5.1-.9.3-1.3s.5-.7.8-.9c.4-.2.8-.4 1.2-.5.3-.1.8-.2 1.5-.2 1.3-.2 2.3-.3 2.9-.6 0-.2 0-.4 0-.4 0-.7-.2-1.1-.5-1.4-.4-.4-1-.5-1.9-.5-.8 0-1.3.1-1.7.4s-.6.7-.8 1.4l-1.6-.2c.1-.7.4-1.2.7-1.6s.8-.8 1.5-1c.6-.2 1.4-.3 2.2-.3s1.5.1 2 .3.9.4 1.1.7.4.7.5 1.1c.1.3.1.8.1 1.5v2.2c0 1.5 0 2.5.1 2.9s.2.8.4 1.2h-1.7c.1-.6 0-1-.1-1.4zm-.1-3.7c-.6.2-1.5.5-2.7.6-.7.1-1.2.2-1.4.3s-.5.3-.7.5c-.1.2-.2.5-.2.8 0 .4.2.8.5 1.1s.8.4 1.5.4c.6 0 1.2-.1 1.7-.4s.9-.7 1.1-1.1.3-.9.3-1.6v-.6zm3.9 5.7 1.6.2c.1.5.3.9.6 1.1.4.3 1 .5 1.7.5.8 0 1.3-.2 1.8-.5.4-.3.7-.7.8-1.3.1-.3.1-1 .1-2.1-.7.8-1.6 1.3-2.7 1.3-1.3 0-2.4-.5-3.1-1.4-.7-1-1.1-2.1-1.1-3.5 0-.9.2-1.8.5-2.6s.8-1.4 1.5-1.8c.6-.4 1.4-.6 2.2-.6 1.1 0 2.1.5 2.8 1.4v-1.2h1.5v8.4c0 1.5-.2 2.6-.5 3.2s-.8 1.1-1.5 1.5-1.5.5-2.5.5c-1.1 0-2.1-.3-2.8-.8-.6-.5-1-1.3-.9-2.3zm1.3-5.8c0 1.3.2 2.2.8 2.8.5.6 1.1.9 1.9.9s1.4-.3 1.9-.9.8-1.5.8-2.7-.3-2.1-.8-2.7-1.2-.9-1.9-.9-1.3.3-1.9.9c-.5.5-.8 1.4-.8 2.6zm16 1.9 1.7.2c-.3 1-.8 1.8-1.5 2.3s-1.6.8-2.8.8c-1.4 0-2.5-.4-3.4-1.3-.8-.9-1.2-2.1-1.2-3.7s.4-2.9 1.2-3.8 1.9-1.3 3.3-1.3c1.3 0 2.3.4 3.2 1.3.8.9 1.2 2.1 1.2 3.7v.4h-7.2c.1 1.1.4 1.9.9 2.5s1.2.8 2 .8c.6 0 1.1-.2 1.5-.5.5-.2.8-.8 1.1-1.4zm-5.4-2.7h5.4c-.1-.8-.3-1.4-.6-1.8-.5-.6-1.2-1-2-1s-1.4.3-1.9.8c-.6.5-.9 1.2-.9 2zm9.1 5.8v-9.7h1.5v1.4c.3-.5.7-.9 1.2-1.1.5-.3 1.1-.4 1.7-.4.7 0 1.3.2 1.8.5s.8.7 1 1.2c.8-1.1 1.8-1.7 3-1.7 1 0 1.7.3 2.2.8s.8 1.3.8 2.5v6.6h-1.6v-6.1c0-.7-.1-1.1-.2-1.4s-.3-.5-.6-.7-.6-.3-1-.3c-.7 0-1.2.2-1.7.7-.4.4-.7 1.2-.7 2.2v5.6h-1.6v-6.3c0-.7-.1-1.3-.4-1.6-.3-.4-.7-.5-1.3-.5-.5 0-.9.1-1.3.4-.4.2-.7.6-.9 1.1s-.3 1.1-.2 2v5h-1.7zm22.2-3.1 1.7.2c-.3 1-.8 1.8-1.5 2.3s-1.6.8-2.8.8c-1.4 0-2.5-.4-3.4-1.3-.8-.9-1.2-2.1-1.2-3.7s.4-2.9 1.2-3.8 1.9-1.3 3.3-1.3c1.3 0 2.3.4 3.2 1.3.8.9 1.2 2.1 1.2 3.7v.4h-7.2c.1 1.1.4 1.9.9 2.5s1.2.8 2 .8c.6 0 1.1-.2 1.5-.5.5-.2.8-.8 1.1-1.4zm-5.4-2.7h5.4c-.1-.8-.3-1.4-.6-1.8-.5-.6-1.2-1-2-1s-1.4.3-1.9.8c-.6.5-.8 1.2-.9 2zm9.1 5.8v-9.7h1.5v1.4c.7-1.1 1.7-1.6 3.1-1.6.6 0 1.1.1 1.6.3s.9.5 1.1.8.4.7.5 1.2c.1.3.1.8.1 1.6v6h-1.6v-5.9c0-.7-.1-1.2-.2-1.5s-.3-.6-.7-.8c-.3-.2-.7-.3-1.1-.3-.7 0-1.3.2-1.8.7-.5.4-.8 1.3-.8 2.5v5.3zm14-1.5.2 1.5c-.5.1-.9.1-1.2.1-.6 0-1.1-.1-1.4-.3s-.6-.4-.7-.7-.2-1-.2-1.9v-5.6h-1.2v-1.3h1.2v-2.4l1.6-1v3.4h1.7v1.3h-1.7v5.7c0 .5 0 .8.1.9s.2.2.3.3.3.1.6.1c.2 0 .4-.1.7-.1z"/><path d="m209.4 64.7 1.8.5c-.4 1.4-1 2.6-2 3.3-1 .8-2.1 1.1-3.5 1.1s-2.6-.3-3.5-.9-1.6-1.4-2.1-2.5-.7-2.3-.7-3.6c0-1.4.3-2.6.8-3.6s1.3-1.8 2.3-2.4c1-.5 2.1-.8 3.2-.8 1.3 0 2.5.3 3.4 1s1.6 1.6 1.9 2.9l-1.7.4c-.3-1-.8-1.7-1.4-2.1s-1.3-.7-2.2-.7c-1 0-1.9.2-2.6.7s-1.2 1.2-1.5 2-.4 1.7-.4 2.6c0 1.1.2 2.1.5 3 .3.8.8 1.5 1.5 1.9s1.5.6 2.3.6c1 0 1.8-.3 2.5-.9s1.1-1.4 1.4-2.5zm3.1-.2c0-1.8.5-3.1 1.5-4 .8-.7 1.8-1.1 3-1.1 1.3 0 2.4.4 3.3 1.3.8.9 1.3 2.1 1.3 3.6 0 1.2-.2 2.2-.6 2.9s-.9 1.3-1.6 1.7-1.5.6-2.3.6c-1.4 0-2.4-.4-3.3-1.3-.9-.8-1.3-2-1.3-3.7zm1.7 0c0 1.2.3 2.2.8 2.8s1.2.9 2 .9 1.5-.3 2-.9.8-1.6.8-2.8-.3-2.1-.8-2.7-1.2-.9-2-.9-1.5.3-2 .9-.8 1.5-.8 2.7zm9.3 4.9v-9.7h1.5v1.4c.3-.5.7-.9 1.2-1.1.5-.3 1.1-.4 1.7-.4.7 0 1.3.2 1.8.5s.8.7 1 1.2c.8-1.1 1.8-1.7 3-1.7 1 0 1.7.3 2.2.8s.8 1.3.8 2.5v6.6h-1.7v-6.1c0-.7-.1-1.1-.2-1.4s-.3-.5-.6-.7-.6-.3-1-.3c-.7 0-1.2.2-1.7.7-.4.4-.7 1.2-.7 2.2v5.6h-1.6v-6.3c0-.7-.1-1.3-.4-1.6s-.7-.5-1.3-.5c-.5 0-.9.1-1.3.4s-.7.6-.9 1.1-.2 1.1-.2 2v5h-1.6zm15.5 3.7v-13.4h1.5v1.2c.4-.5.8-.9 1.2-1.1s1-.4 1.6-.4c.8 0 1.5.2 2.2.6.6.4 1.1 1 1.4 1.8s.5 1.6.5 2.5c0 1-.2 1.9-.5 2.7-.4.8-.9 1.4-1.5 1.8-.7.4-1.4.6-2.1.6-.5 0-1-.1-1.5-.3s-.8-.5-1.1-.9v4.7h-1.7zm1.5-8.5c0 1.2.2 2.2.8 2.8.5.6 1.1.9 1.8.9s1.4-.3 1.9-.9.8-1.6.8-2.9c0-1.2-.3-2.2-.8-2.8s-1.1-.9-1.8-.9-1.3.3-1.9 1c-.5.6-.8 1.5-.8 2.8zm8.3-.1c0-1.8.5-3.1 1.5-4 .8-.7 1.8-1.1 3-1.1 1.3 0 2.4.4 3.3 1.3.8.9 1.3 2.1 1.3 3.6 0 1.2-.2 2.2-.6 2.9s-.9 1.3-1.6 1.7-1.5.6-2.3.6c-1.4 0-2.4-.4-3.3-1.3-.9-.8-1.3-2-1.3-3.7zm1.7 0c0 1.2.3 2.2.8 2.8s1.2.9 2 .9 1.5-.3 2-.9.8-1.6.8-2.8-.3-2.1-.8-2.7-1.2-.9-2-.9-1.5.3-2 .9-.8 1.5-.8 2.7zm9.3 4.9v-9.7h1.5v1.4c.7-1.1 1.7-1.6 3.1-1.6.6 0 1.1.1 1.6.3s.9.5 1.1.8.4.7.5 1.2c.1.3.1.8.1 1.6v6h-1.7v-5.9c0-.7-.1-1.2-.2-1.5s-.3-.6-.7-.8-.7-.3-1.1-.3c-.7 0-1.3.2-1.8.7-.5.4-.8 1.3-.8 2.5v5.3zm17-3.1 1.7.2c-.3 1-.8 1.8-1.5 2.3s-1.6.8-2.8.8c-1.4 0-2.5-.4-3.4-1.3-.8-.9-1.2-2.1-1.2-3.7s.4-2.9 1.2-3.8 1.9-1.3 3.3-1.3c1.3 0 2.3.4 3.2 1.3.8.9 1.2 2.1 1.2 3.7v.4h-7.2c.1 1.1.4 1.9.9 2.5s1.2.8 2 .8c.6 0 1.1-.2 1.5-.5.5-.2.8-.8 1.1-1.4zm-5.4-2.7h5.4c-.1-.8-.3-1.4-.6-1.8-.5-.6-1.2-1-2-1s-1.4.3-1.9.8c-.6.5-.9 1.2-.9 2zm9.1 5.8v-9.7h1.5v1.4c.7-1.1 1.7-1.6 3.1-1.6.6 0 1.1.1 1.6.3s.9.5 1.1.8.4.7.5 1.2c.1.3.1.8.1 1.6v6h-1.6v-5.9c0-.7-.1-1.2-.2-1.5s-.3-.6-.7-.8c-.3-.2-.7-.3-1.1-.3-.7 0-1.3.2-1.8.7-.5.4-.8 1.3-.8 2.5v5.3zm14-1.5.2 1.5c-.5.1-.9.1-1.2.1-.6 0-1.1-.1-1.4-.3s-.6-.4-.7-.7-.2-1-.2-1.9v-5.6h-1.2v-1.3h1.2v-2.4l1.6-1v3.4h1.7v1.3h-1.7v5.7c0 .5 0 .8.1.9s.2.2.3.3.3.1.6.1c.2 0 .4-.1.7-.1zm7.3 1.5v-13.4h1.8v13.4z"/><path d="m308.3 241.6h86.4v62.3h-86.4z" fill="#cfe2f3"/><path d="m308.3 241.6h86.4v62.3h-86.4z" fill="none" stroke="#000" stroke-linejoin="round" stroke-miterlimit="10"/><path d="m334.8 279.7 5.1-13.4h1.9l5.5 13.4h-2l-1.5-4h-5.6l-1.5 4zm3.9-5.5h4.5l-1.4-3.7c-.4-1.1-.7-2-.9-2.8-.2.9-.4 1.7-.7 2.5zm9.9 9.2v-13.4h1.5v1.2c.4-.5.8-.9 1.2-1.1s1-.4 1.6-.4c.8 0 1.5.2 2.2.6.6.4 1.1 1 1.4 1.8s.5 1.6.5 2.5c0 1-.2 1.9-.5 2.7-.4.8-.9 1.4-1.5 1.8-.7.4-1.4.6-2.1.6-.5 0-1-.1-1.5-.3-.4-.2-.8-.5-1.1-.9v4.7h-1.7zm1.4-8.5c0 1.2.3 2.2.8 2.8s1.1.9 1.8.9 1.4-.3 1.9-.9.8-1.6.8-2.9c0-1.2-.3-2.2-.8-2.8s-1.1-.9-1.8-.9-1.3.3-1.9 1c-.5.6-.8 1.5-.8 2.8zm8.9 8.5v-13.4h1.5v1.2c.4-.5.8-.9 1.2-1.1s1-.4 1.6-.4c.8 0 1.5.2 2.2.6.6.4 1.1 1 1.4 1.8s.5 1.6.5 2.5c0 1-.2 1.9-.5 2.7-.4.8-.9 1.4-1.5 1.8-.7.4-1.4.6-2.1.6-.5 0-1-.1-1.5-.3-.4-.2-.8-.5-1.1-.9v4.7h-1.7zm1.5-8.5c0 1.2.3 2.2.8 2.8s1.1.9 1.8.9 1.4-.3 1.9-.9.8-1.6.8-2.9c0-1.2-.3-2.2-.8-2.8s-1.1-.9-1.8-.9-1.3.3-1.9 1c-.5.6-.8 1.5-.8 2.8z"/><path d="m308.3 178.3h86.4v39.7h-86.4z" fill="#cfe2f3"/><path d="m308.3 178.3h86.4v39.7h-86.4z" fill="none" stroke="#000" stroke-linejoin="round" stroke-miterlimit="10"/><path d="m329.1 205.1v-13.4h5c.9 0 1.6 0 2 .1.6.1 1.2.3 1.6.6s.8.7 1.1 1.3.4 1.2.4 1.8c0 1.1-.4 2.1-1.1 2.9s-2 1.2-3.9 1.2h-3.4v5.4h-1.7zm1.7-7h3.5c1.1 0 2-.2 2.4-.6.5-.4.7-1 .7-1.8 0-.6-.1-1-.4-1.4s-.7-.7-1.1-.8c-.3-.1-.8-.1-1.6-.1h-3.4v4.7zm10.5 7v-9.7h1.5v1.5c.4-.7.7-1.1 1-1.4.3-.2.7-.3 1.1-.3.6 0 1.1.2 1.7.5l-.6 1.5c-.4-.2-.8-.4-1.2-.4s-.7.1-1 .3-.5.5-.6.9c-.2.6-.3 1.2-.3 1.9v5.1h-1.6zm5.6-4.9c0-1.8.5-3.1 1.5-4 .8-.7 1.8-1.1 3-1.1 1.3 0 2.4.4 3.3 1.3.8.9 1.3 2.1 1.3 3.6 0 1.2-.2 2.2-.6 2.9s-.9 1.3-1.6 1.7-1.5.6-2.3.6c-1.4 0-2.4-.4-3.3-1.3-.9-.8-1.3-2.1-1.3-3.7zm1.7 0c0 1.2.3 2.2.8 2.8s1.2.9 2 .9 1.5-.3 2-.9.8-1.6.8-2.8-.3-2.1-.8-2.7-1.2-.9-2-.9-1.5.3-2 .9c-.5.5-.8 1.5-.8 2.7zm8.2 4.9 3.5-5-3.3-4.6h2l1.5 2.3c.3.4.5.8.7 1.1.3-.4.5-.8.7-1.1l1.6-2.3h2l-3.3 4.5 3.6 5.1h-2l-2-3-.5-.8-2.5 3.8zm10.3 3.7-.2-1.5c.4.1.7.1.9.1.4 0 .7-.1.9-.2s.4-.3.5-.5.3-.6.5-1.2c0-.1.1-.2.1-.4l-3.7-9.7h1.8l2 5.6c.3.7.5 1.5.7 2.2.2-.8.4-1.5.7-2.2l2.1-5.6h1.6l-3.7 9.8c-.4 1.1-.7 1.8-.9 2.2-.3.5-.6.9-1 1.2-.4.2-.8.4-1.3.4-.2 0-.6-.1-1-.2z"/><path d="m423.1 241.6h86.4v62.3h-86.4z" fill="#cfe2f3"/><path d="m423.1 241.6h86.4v62.3h-86.4z" fill="none" stroke="#000" stroke-linejoin="round" stroke-miterlimit="10"/><path d="m449.6 279.7 5.1-13.4h1.9l5.5 13.4h-2l-1.5-4h-5.6l-1.5 4zm3.9-5.5h4.5l-1.4-3.7c-.4-1.1-.7-2-.9-2.8-.2.9-.4 1.7-.7 2.5zm9.9 9.2v-13.4h1.5v1.2c.4-.5.8-.9 1.2-1.1s1-.4 1.6-.4c.8 0 1.5.2 2.2.6.6.4 1.1 1 1.4 1.8s.5 1.6.5 2.5c0 1-.2 1.9-.5 2.7-.4.8-.9 1.4-1.5 1.8-.7.4-1.4.6-2.1.6-.5 0-1-.1-1.5-.3s-.8-.5-1.1-.9v4.7h-1.7zm1.4-8.5c0 1.2.2 2.2.8 2.8.5.6 1.1.9 1.8.9s1.4-.3 1.9-.9.8-1.6.8-2.9c0-1.2-.3-2.2-.8-2.8s-1.1-.9-1.8-.9-1.3.3-1.9 1c-.5.6-.8 1.5-.8 2.8zm8.9 8.5v-13.4h1.5v1.2c.4-.5.8-.9 1.2-1.1s1-.4 1.6-.4c.8 0 1.5.2 2.2.6.6.4 1.1 1 1.4 1.8s.5 1.6.5 2.5c0 1-.2 1.9-.5 2.7-.4.8-.9 1.4-1.5 1.8-.7.4-1.4.6-2.1.6-.5 0-1-.1-1.5-.3s-.8-.5-1.1-.9v4.7h-1.7zm1.5-8.5c0 1.2.2 2.2.8 2.8.5.6 1.1.9 1.8.9s1.4-.3 1.9-.9.8-1.6.8-2.9c0-1.2-.3-2.2-.8-2.8s-1.1-.9-1.8-.9-1.3.3-1.9 1c-.5.6-.8 1.5-.8 2.8z"/><path d="m423.1 178.3h86.4v39.7h-86.4z" fill="#cfe2f3"/><path d="m423.1 178.3h86.4v39.7h-86.4z" fill="none" stroke="#000" stroke-linejoin="round" stroke-miterlimit="10"/><path d="m443.9 205.1v-13.4h5c.9 0 1.6 0 2 .1.6.1 1.2.3 1.6.6s.8.7 1.1 1.3.4 1.2.4 1.8c0 1.1-.4 2.1-1.1 2.9s-2 1.2-3.9 1.2h-3.4v5.4h-1.7zm1.7-7h3.5c1.1 0 2-.2 2.4-.6.5-.4.7-1 .7-1.8 0-.6-.1-1-.4-1.4s-.7-.7-1.1-.8c-.3-.1-.8-.1-1.6-.1h-3.4v4.7zm10.5 7v-9.7h1.5v1.5c.4-.7.7-1.1 1-1.4.3-.2.7-.3 1.1-.3.6 0 1.1.2 1.7.5l-.6 1.5c-.4-.2-.8-.4-1.2-.4s-.7.1-1 .3-.5.5-.6.9c-.2.6-.3 1.2-.3 1.9v5.1h-1.6zm5.6-4.9c0-1.8.5-3.1 1.5-4 .8-.7 1.8-1.1 3-1.1 1.3 0 2.4.4 3.3 1.3.8.9 1.3 2.1 1.3 3.6 0 1.2-.2 2.2-.6 2.9s-.9 1.3-1.6 1.7-1.5.6-2.3.6c-1.4 0-2.4-.4-3.3-1.3-.9-.8-1.3-2.1-1.3-3.7zm1.7 0c0 1.2.3 2.2.8 2.8s1.2.9 2 .9 1.5-.3 2-.9.8-1.6.8-2.8-.3-2.1-.8-2.7-1.2-.9-2-.9-1.5.3-2 .9c-.5.5-.8 1.5-.8 2.7zm8.2 4.9 3.5-5-3.3-4.6h2l1.5 2.3c.3.4.5.8.7 1.1.3-.4.5-.8.7-1.1l1.6-2.3h2l-3.3 4.5 3.6 5.1h-2l-2-3-.5-.8-2.5 3.8zm10.3 3.7-.2-1.5c.4.1.7.1.9.1.4 0 .7-.1.9-.2s.4-.3.5-.5.3-.6.5-1.2c0-.1.1-.2.1-.4l-3.7-9.7h1.8l2 5.6c.3.7.5 1.5.7 2.2.2-.8.4-1.5.7-2.2l2.1-5.6h1.6l-3.7 9.8c-.4 1.1-.7 1.8-.9 2.2-.3.5-.6.9-1 1.2s-.8.4-1.3.4c-.2 0-.6-.1-1-.2z"/><path d="m537.9 241.6h86.4v62.3h-86.4z" fill="#cfe2f3"/><path d="m537.9 241.6h86.4v62.3h-86.4z" fill="none" stroke="#000" stroke-linejoin="round" stroke-miterlimit="10"/><path d="m564.4 279.7 5.1-13.4h1.9l5.5 13.4h-2l-1.5-4h-5.6l-1.5 4zm3.9-5.5h4.5l-1.4-3.7c-.4-1.1-.7-2-.9-2.8-.2.9-.4 1.7-.7 2.5zm9.8 9.2v-13.4h1.5v1.2c.4-.5.8-.9 1.2-1.1s1-.4 1.6-.4c.8 0 1.5.2 2.2.6.6.4 1.1 1 1.4 1.8s.5 1.6.5 2.5c0 1-.2 1.9-.5 2.7-.4.8-.9 1.4-1.5 1.8-.7.4-1.4.6-2.1.6-.5 0-1-.1-1.5-.3s-.8-.5-1.1-.9v4.7h-1.7zm1.5-8.5c0 1.2.2 2.2.8 2.8.5.6 1.1.9 1.8.9s1.4-.3 1.9-.9.8-1.6.8-2.9c0-1.2-.3-2.2-.8-2.8s-1.1-.9-1.8-.9-1.3.3-1.9 1c-.5.6-.8 1.5-.8 2.8zm8.9 8.5v-13.4h1.5v1.2c.4-.5.8-.9 1.2-1.1s1-.4 1.6-.4c.8 0 1.5.2 2.2.6.6.4 1.1 1 1.4 1.8s.5 1.6.5 2.5c0 1-.2 1.9-.5 2.7s-.9 1.4-1.5 1.8c-.7.4-1.4.6-2.1.6-.5 0-1-.1-1.5-.3s-.8-.5-1.1-.9v4.7h-1.7zm1.5-8.5c0 1.2.2 2.2.8 2.8.5.6 1.1.9 1.8.9s1.4-.3 1.9-.9.8-1.6.8-2.9c0-1.2-.3-2.2-.8-2.8s-1.1-.9-1.8-.9-1.3.3-1.9 1c-.5.6-.8 1.5-.8 2.8z"/><path d="m537.9 178.3h86.4v39.7h-86.4z" fill="#cfe2f3"/><path d="m537.9 178.3h86.4v39.7h-86.4z" fill="none" stroke="#000" stroke-linejoin="round" stroke-miterlimit="10"/><path d="m558.7 205.1v-13.4h5c.9 0 1.6 0 2 .1.6.1 1.2.3 1.6.6s.8.7 1.1 1.3.4 1.2.4 1.8c0 1.1-.4 2.1-1.1 2.9s-2 1.2-3.9 1.2h-3.4v5.4h-1.7zm1.7-7h3.5c1.1 0 2-.2 2.4-.6.5-.4.7-1 .7-1.8 0-.6-.1-1-.4-1.4s-.7-.7-1.1-.8c-.3-.1-.8-.1-1.6-.1h-3.4v4.7zm10.5 7v-9.7h1.5v1.5c.4-.7.7-1.1 1-1.4.3-.2.7-.3 1.1-.3.6 0 1.1.2 1.7.5l-.6 1.5c-.4-.2-.8-.4-1.2-.4s-.7.1-1 .3-.5.5-.6.9c-.2.6-.3 1.2-.3 1.9v5.1h-1.6zm5.6-4.9c0-1.8.5-3.1 1.5-4 .8-.7 1.8-1.1 3-1.1 1.3 0 2.4.4 3.3 1.3.8.9 1.3 2.1 1.3 3.6 0 1.2-.2 2.2-.6 2.9s-.9 1.3-1.6 1.7-1.5.6-2.3.6c-1.4 0-2.4-.4-3.3-1.3-.9-.8-1.3-2.1-1.3-3.7zm1.7 0c0 1.2.3 2.2.8 2.8s1.2.9 2 .9 1.5-.3 2-.9.8-1.6.8-2.8-.3-2.1-.8-2.7-1.2-.9-2-.9-1.5.3-2 .9c-.5.5-.8 1.5-.8 2.7zm8.2 4.9 3.5-5-3.3-4.6h2l1.5 2.3c.3.4.5.8.7 1.1.3-.4.5-.8.7-1.1l1.6-2.3h2l-3.3 4.5 3.6 5.1h-2l-2-3-.5-.8-2.5 3.8zm10.3 3.7-.2-1.5c.4.1.7.1.9.1.4 0 .7-.1.9-.2s.4-.3.5-.5.3-.6.5-1.2c0-.1.1-.2.1-.4l-3.7-9.7h1.8l2 5.6c.3.7.5 1.5.7 2.2.2-.8.4-1.5.7-2.2l2.1-5.6h1.6l-3.7 9.8c-.4 1.1-.7 1.8-.9 2.2-.3.5-.6.9-1 1.2s-.8.4-1.3.4c-.2 0-.6-.1-1-.2z"/><path d="m220.8 217.5-8 24.6" fill="none"/><path d="m220.8 217.5-6.2 18.9" fill="none" stroke="#000" stroke-linejoin="round" stroke-miterlimit="10"/><path d="m213.1 235.9.2 4.8 3-3.8z" stroke="#000" stroke-miterlimit="10"/><path d="m239 238.3-1-20.9" fill="none"/><path d="m239 238.3-.7-14.9" fill="none" stroke="#000" stroke-linejoin="round" stroke-miterlimit="10"/><path d="m239.9 223.4-1.9-4.5-1.4 4.6z" stroke="#000" stroke-miterlimit="10"/><path d="m348.8 217.5-8 24.6" fill="none"/><path d="m348.8 217.5-6.2 18.9" fill="none" stroke="#000" stroke-linejoin="round" stroke-miterlimit="10"/><path d="m341.1 235.9.2 4.8 3-3.8z" stroke="#000" stroke-miterlimit="10"/><path d="m367 238.3-1-20.9" fill="none"/><path d="m367 238.3-.7-14.9" fill="none" stroke="#000" stroke-linejoin="round" stroke-miterlimit="10"/><path d="m367.9 223.4-1.9-4.5-1.4 4.6z" stroke="#000" stroke-miterlimit="10"/><path d="m460.8 217.5-8 24.6" fill="none"/><path d="m460.8 217.5-6.2 18.9" fill="none" stroke="#000" stroke-linejoin="round" stroke-miterlimit="10"/><path d="m453.1 235.9.2 4.8 3-3.8z" stroke="#000" stroke-miterlimit="10"/><path d="m479 238.3-1-20.9" fill="none"/><path d="m479 238.3-.7-14.9" fill="none" stroke="#000" stroke-linejoin="round" stroke-miterlimit="10"/><path d="m479.9 223.4-1.9-4.5-1.4 4.6z" stroke="#000" stroke-miterlimit="10"/><path d="m572.8 217.5-8 24.6" fill="none"/><path d="m572.8 217.5-6.2 18.9" fill="none" stroke="#000" stroke-linejoin="round" stroke-miterlimit="10"/><path d="m565.1 235.9.2 4.8 3-3.8z" stroke="#000" stroke-miterlimit="10"/><path d="m591 238.3-1-20.9" fill="none"/><path d="m591 238.3-.7-14.9" fill="none" stroke="#000" stroke-linejoin="round" stroke-miterlimit="10"/><path d="m591.9 223.4-1.9-4.5-1.4 4.6z" stroke="#000" stroke-miterlimit="10"/><path d="m160.1 97.8c-10.2 0-18.4-1.4-18.4-3.1v-36c0-1.7-8.3-3.1-18.4-3.1 10.2 0 18.4-1.4 18.4-3.1v-36c0-1.7 8.3-3.1 18.4-3.1z" fill="none"/><path d="m160.1 97.8c-10.2 0-18.4-1.4-18.4-3.1v-36c0-1.7-8.3-3.1-18.4-3.1 10.2 0 18.4-1.4 18.4-3.1v-36c0-1.7 8.3-3.1 18.4-3.1" fill="none"/><path d="m160.1 97.8c-10.2 0-18.4-1.4-18.4-3.1v-36c0-1.7-8.3-3.1-18.4-3.1 10.2 0 18.4-1.4 18.4-3.1v-36c0-1.7 8.3-3.1 18.4-3.1" fill="none" stroke="#000" stroke-linejoin="round" stroke-miterlimit="10"/><path d="m160.1 224.6c-10.2 0-18.4-1.4-18.4-3.1v-21c0-1.7-8.3-3.1-18.4-3.1 10.2 0 18.4-1.4 18.4-3.1v-21c0-1.7 8.3-3.1 18.4-3.1z" fill="none"/><path d="m160.1 224.6c-10.2 0-18.4-1.4-18.4-3.1v-21c0-1.7-8.3-3.1-18.4-3.1 10.2 0 18.4-1.4 18.4-3.1v-21c0-1.7 8.3-3.1 18.4-3.1" fill="none"/><path d="m160.1 224.6c-10.2 0-18.4-1.4-18.4-3.1v-21c0-1.7-8.3-3.1-18.4-3.1 10.2 0 18.4-1.4 18.4-3.1v-21c0-1.7 8.3-3.1 18.4-3.1" fill="none" stroke="#000" stroke-linejoin="round" stroke-miterlimit="10"/><path d="m638 170.3h67.3v39.7h-67.3z" fill="none"/><path d="m656.3 205.3v-4h4v4zm13.4 0v-4h4v4zm13.3 0v-4h4v4z"/><path d="m638 242.3h67.3v39.7h-67.3z" fill="none"/><path d="m656.3 277.3v-4h4v4zm13.4 0v-4h4v4zm13.3 0v-4h4v4z"/><path d="m487.4 20.3h67.3v39.7h-67.3z" fill="none"/><path d="m505.7 55.3v-4h4v4zm13.3 0v-4h4v4zm13.4 0v-4h4v4z"/><path d="m-13.7 34.8h136.9v39.7h-136.9z" fill="none"/><path d="m14.2 57 1.8.5c-.4 1.4-1 2.6-2 3.3-1 .8-2.1 1.1-3.5 1.1s-2.6-.3-3.5-.9-1.6-1.4-2.1-2.5-.7-2.3-.7-3.6c0-1.4.3-2.6.8-3.6s1.3-1.8 2.3-2.4c1-.5 2.1-.8 3.2-.8 1.3 0 2.5.3 3.4 1s1.6 1.6 1.9 2.9l-1.8.5c-.3-1-.8-1.7-1.4-2.1s-1.3-.7-2.2-.7c-1 0-1.9.2-2.6.7s-1.2 1.2-1.5 2c-.2.8-.3 1.7-.3 2.6 0 1.1.2 2.1.5 3s.8 1.5 1.5 1.9 1.5.6 2.3.6c1 0 1.8-.3 2.5-.9s1.2-1.4 1.4-2.6zm3.2-.1c0-1.8.5-3.1 1.5-4 .8-.7 1.8-1.1 3-1.1 1.3 0 2.4.4 3.3 1.3.8.9 1.3 2.1 1.3 3.6 0 1.2-.2 2.2-.6 2.9s-.9 1.3-1.6 1.7-1.5.6-2.3.6c-1.4 0-2.4-.4-3.3-1.3-.9-.8-1.3-2.1-1.3-3.7zm1.6 0c0 1.2.3 2.2.8 2.8s1.2.9 2 .9 1.5-.3 2-.9.8-1.6.8-2.8-.3-2.1-.8-2.7-1.2-.9-2-.9-1.5.3-2 .9c-.5.5-.8 1.5-.8 2.7zm9.3 4.8v-9.7h1.5v1.4c.7-1.1 1.7-1.6 3.1-1.6.6 0 1.1.1 1.6.3s.9.5 1.1.8.4.7.5 1.2c.1.3.1.8.1 1.6v6h-1.6v-5.9c0-.7-.1-1.2-.2-1.5s-.3-.6-.7-.8c-.3-.2-.7-.3-1.1-.3-.7 0-1.3.2-1.8.7-.5.4-.8 1.3-.8 2.5v5.3zm14-1.4.2 1.5c-.5.1-.9.1-1.2.1-.6 0-1.1-.1-1.4-.3s-.6-.4-.7-.7-.2-1-.2-1.9v-5.6h-1.2v-1.3h1.2v-2.4l1.6-1v3.4h1.7v1.3h-1.7v5.6c0 .5 0 .8.1.9l.3.3c.1.1.3.1.6.1zm1.6 1.4v-9.7h1.5v1.5c.4-.7.7-1.1 1-1.4.3-.2.7-.3 1.1-.3.6 0 1.1.2 1.7.5l-.6 1.5c-.4-.2-.8-.4-1.2-.4s-.7.1-1 .3-.5.5-.6.9c-.2.6-.3 1.2-.3 1.9v5.1h-1.6zm5.6-4.8c0-1.8.5-3.1 1.5-4 .8-.7 1.8-1.1 3-1.1 1.3 0 2.4.4 3.3 1.3.8.9 1.3 2.1 1.3 3.6 0 1.2-.2 2.2-.6 2.9s-.9 1.3-1.6 1.7c-.7.5-1.5.7-2.4.7-1.4 0-2.4-.4-3.3-1.3-.8-.9-1.2-2.2-1.2-3.8zm1.7 0c0 1.2.3 2.2.8 2.8s1.2.9 2 .9 1.5-.3 2-.9.8-1.6.8-2.8-.3-2.1-.8-2.7-1.2-.9-2-.9-1.5.3-2 .9c-.5.5-.8 1.5-.8 2.7zm9.2 4.8v-13.3h1.6v13.4h-1.6zm9.4 3.7v-13.3h1.5v1.2c.4-.5.8-.9 1.2-1.1s1-.4 1.6-.4c.8 0 1.5.2 2.2.6.6.4 1.1 1 1.4 1.8s.5 1.6.5 2.5c0 1-.2 1.9-.5 2.7s-.9 1.4-1.5 1.8c-.7.5-1.5.8-2.2.8-.5 0-1-.1-1.5-.3s-.8-.5-1.1-.9v4.7h-1.6zm1.5-8.4c0 1.2.2 2.2.8 2.8.5.6 1.1.9 1.8.9s1.4-.3 1.9-.9.8-1.6.8-2.9c0-1.2-.3-2.2-.8-2.8s-1.1-.9-1.8-.9-1.3.3-1.9 1c-.5.6-.8 1.5-.8 2.8zm8.8 4.7v-13.3h1.6v13.4h-1.6zm10.5-1.2c-.6.5-1.2.9-1.8 1.1s-1.2.3-1.8.3c-1.1 0-1.9-.3-2.5-.8s-.9-1.2-.9-2c0-.5.1-.9.3-1.3s.5-.7.8-.9c.4-.2.8-.4 1.2-.5.3-.1.8-.2 1.5-.2 1.3-.2 2.3-.3 2.9-.6 0-.2 0-.4 0-.4 0-.7-.2-1.1-.5-1.4-.4-.4-1-.5-1.9-.5-.8 0-1.3.1-1.7.4s-.6.7-.8 1.4l-1.6-.2c.1-.7.4-1.2.7-1.6s.8-.8 1.5-1 1.4-.3 2.2-.3 1.5.1 2 .3.9.4 1.1.7.4.7.5 1.1c.1.3.1.8.1 1.5v2.2c0 1.5 0 2.5.1 2.9s.2.8.4 1.2h-1.4c-.2-.5-.3-.9-.4-1.4zm-.1-3.6c-.6.2-1.5.5-2.7.6-.7.1-1.2.2-1.4.3s-.5.3-.7.5c-.1.2-.2.5-.2.8 0 .4.2.8.5 1.1s.8.4 1.5.4c.6 0 1.2-.1 1.7-.4s.9-.7 1.1-1.1.3-.9.3-1.6v-.6zm4.2 4.8v-9.7h1.5v1.4c.7-1.1 1.7-1.6 3.1-1.6.6 0 1.1.1 1.6.3s.9.5 1.1.8.4.7.5 1.2c.1.3.1.8.1 1.6v6h-1.6v-5.9c0-.7-.1-1.2-.2-1.5s-.3-.6-.7-.8c-.3-.2-.7-.3-1.1-.3-.7 0-1.3.2-1.8.7-.5.4-.8 1.3-.8 2.5v5.3zm17-3.1 1.7.2c-.3 1-.8 1.8-1.5 2.3s-1.6.8-2.8.8c-1.4 0-2.5-.4-3.4-1.3-.8-.9-1.2-2.1-1.2-3.7s.4-2.9 1.2-3.8 1.9-1.3 3.3-1.3c1.3 0 2.3.4 3.2 1.3.8.9 1.2 2.1 1.2 3.7v.4h-7.2c.1 1.1.4 1.9.9 2.5s1.2.8 2 .8c.6 0 1.1-.2 1.5-.5.5-.2.9-.7 1.1-1.4zm-5.4-2.6h5.4c-.1-.8-.3-1.4-.6-1.8-.5-.6-1.2-1-2-1s-1.4.3-1.9.8-.8 1.1-.9 2z"/><path d="m0 177.6h109.5v39.7h-109.5z" fill="none"/><path d="m11.7 204.5v-13.4h4.6c1 0 1.8.1 2.4.2.8.2 1.4.5 2 1 .7.6 1.2 1.4 1.6 2.3s.5 2 .5 3.2c0 1-.1 1.9-.4 2.7-.2.8-.5 1.4-.9 1.9s-.8.9-1.2 1.2-1 .5-1.6.7c-.6.1-1.3.2-2.1.2zm1.8-1.6h2.9c.9 0 1.6-.1 2.1-.2.5-.2.9-.4 1.2-.7.4-.4.7-1 1-1.7.2-.7.4-1.6.4-2.6 0-1.4-.2-2.5-.7-3.2-.5-.8-1-1.2-1.7-1.5-.5-.2-1.2-.3-2.3-.3h-2.8v10.2zm17.8.4c-.6.5-1.2.9-1.8 1.1s-1.2.3-1.8.3c-1.1 0-1.9-.3-2.5-.8s-.9-1.2-.9-2c0-.5.1-.9.3-1.3s.5-.7.8-.9c.4-.2.8-.4 1.2-.5.3-.1.8-.2 1.5-.2 1.3-.2 2.3-.3 2.9-.6 0-.2 0-.4 0-.4 0-.7-.2-1.1-.5-1.4-.4-.4-1-.5-1.9-.5-.8 0-1.3.1-1.7.4s-.6.7-.8 1.4l-1.6-.2c.1-.7.4-1.2.7-1.6s.8-.8 1.5-1c.6-.2 1.4-.3 2.2-.3s1.5.1 2 .3.9.4 1.1.7.4.7.5 1.1c.1.3.1.8.1 1.5v2.2c0 1.5 0 2.5.1 2.9s.2.8.4 1.2h-1.7c.1-.5 0-.9-.1-1.4zm-.1-3.7c-.6.2-1.5.5-2.7.6-.7.1-1.2.2-1.4.3s-.5.3-.7.5c-.1.2-.2.5-.2.8 0 .4.2.8.5 1.1s.8.4 1.5.4c.6 0 1.2-.1 1.7-.4s.9-.7 1.1-1.1.3-.9.3-1.6v-.6zm7.8 3.4.2 1.5c-.5.1-.9.1-1.2.1-.6 0-1.1-.1-1.4-.3s-.6-.4-.7-.7-.2-1-.2-1.9v-5.6h-1.2v-1.3h1.2v-2.4l1.6-1v3.4h1.7v1.3h-1.7v5.7c0 .5 0 .8.1.9s.2.2.3.3.3.1.6.1c.1 0 .4 0 .7-.1zm7.9.3c-.6.5-1.2.9-1.8 1.1s-1.2.3-1.8.3c-1.1 0-1.9-.3-2.5-.8s-.9-1.2-.9-2c0-.5.1-.9.3-1.3s.5-.7.8-.9c.4-.2.8-.4 1.2-.5.3-.1.8-.2 1.5-.2 1.3-.2 2.3-.3 2.9-.6 0-.2 0-.4 0-.4 0-.7-.2-1.1-.5-1.4-.4-.4-1-.5-1.9-.5-.8 0-1.3.1-1.7.4s-.6.7-.8 1.4l-1.6-.2c.1-.7.4-1.2.7-1.6s.8-.8 1.5-1c.6-.2 1.4-.3 2.2-.3s1.5.1 2 .3.9.4 1.1.7.4.7.5 1.1c.1.3.1.8.1 1.5v2.2c0 1.5 0 2.5.1 2.9s.2.8.4 1.2h-1.7c0-.5-.1-.9-.1-1.4zm-.2-3.7c-.6.2-1.5.5-2.7.6-.7.1-1.2.2-1.4.3s-.5.3-.7.5c-.1.2-.2.5-.2.8 0 .4.2.8.5 1.1s.8.4 1.5.4c.6 0 1.2-.1 1.7-.4s.9-.7 1.1-1.1.3-.9.3-1.6v-.6zm9.4 8.6v-13.4h1.5v1.2c.4-.5.8-.9 1.2-1.1s1-.4 1.6-.4c.8 0 1.5.2 2.2.6.6.4 1.1 1 1.4 1.8s.5 1.6.5 2.5c0 1-.2 1.9-.5 2.7-.4.8-.9 1.4-1.5 1.8-.7.4-1.4.6-2.1.6-.5 0-1-.1-1.5-.3s-.8-.5-1.1-.9v4.7h-1.7zm1.5-8.5c0 1.2.2 2.2.8 2.8.5.6 1.1.9 1.8.9s1.4-.3 1.9-.9.8-1.6.8-2.9c0-1.2-.3-2.2-.8-2.8s-1.1-.9-1.8-.9-1.3.3-1.9 1c-.5.6-.8 1.6-.8 2.8zm8.9 4.8v-13.4h1.6v13.4zm10.5-1.2c-.6.5-1.2.9-1.8 1.1s-1.2.3-1.8.3c-1.1 0-1.9-.3-2.5-.8s-.9-1.2-.9-2c0-.5.1-.9.3-1.3s.5-.7.8-.9c.4-.2.8-.4 1.2-.5.3-.1.8-.2 1.5-.2 1.3-.2 2.3-.3 2.9-.6 0-.2 0-.4 0-.4 0-.7-.2-1.1-.5-1.4-.4-.4-1-.5-1.9-.5-.8 0-1.3.1-1.7.4s-.6.7-.8 1.4l-1.6-.2c.1-.7.4-1.2.7-1.6s.8-.8 1.5-1c.6-.2 1.4-.3 2.2-.3s1.5.1 2 .3.9.4 1.1.7.4.7.5 1.1c.1.3.1.8.1 1.5v2.2c0 1.5 0 2.5.1 2.9s.2.8.4 1.2h-1.7c0-.5-.1-.9-.1-1.4zm-.2-3.7c-.6.2-1.5.5-2.7.6-.7.1-1.2.2-1.4.3s-.5.3-.7.5c-.1.2-.2.5-.2.8 0 .4.2.8.5 1.1s.8.4 1.5.4c.6 0 1.2-.1 1.7-.4s.9-.7 1.1-1.1.3-.9.3-1.6v-.6zm4.2 4.9v-9.7h1.5v1.4c.7-1.1 1.7-1.6 3.1-1.6.6 0 1.1.1 1.6.3s.9.5 1.1.8.4.7.5 1.2c.1.3.1.8.1 1.6v6h-1.6v-5.9c0-.7-.1-1.2-.2-1.5s-.3-.6-.7-.8-.7-.3-1.1-.3c-.7 0-1.3.2-1.8.7-.5.4-.8 1.3-.8 2.5v5.3zm17-3.1 1.7.2c-.3 1-.8 1.8-1.5 2.3s-1.6.8-2.8.8c-1.4 0-2.5-.4-3.4-1.3-.8-.9-1.2-2.1-1.2-3.7s.4-2.9 1.2-3.8 1.9-1.3 3.3-1.3c1.3 0 2.3.4 3.2 1.3.8.9 1.2 2.1 1.2 3.7v.4h-7.2c.1 1.1.4 1.9.9 2.5s1.2.8 2 .8c.6 0 1.1-.2 1.5-.5.5-.2.9-.7 1.1-1.4zm-5.4-2.7h5.4c-.1-.8-.3-1.4-.6-1.8-.5-.6-1.2-1-2-1s-1.4.3-1.9.8-.8 1.2-.9 2z"/><path d="m308.3 198.1h-18v-92.2" fill="none"/><path d="m308.3 198.1h-18v-92.2" fill="none" stroke="#000" stroke-dasharray="1 3" stroke-linejoin="round" stroke-miterlimit="10"/><path d="m212.8 177.3 23.2-59.3" fill="none"/><path d="m212.8 177.3 21-53.7" fill="none" stroke="#000" stroke-linejoin="round" stroke-miterlimit="10"/><path d="m235.3 124.2.1-4.8-3.2 3.6z" stroke="#000" stroke-miterlimit="10"/><path d="m236.8 177.3 23.2-59.3" fill="none"/><path d="m239 171.7 21-53.7" fill="none" stroke="#000" stroke-linejoin="round" stroke-miterlimit="10"/><path d="m237.5 171.1-.1 4.8 3.2-3.6z" stroke="#000" stroke-miterlimit="10"/><path d="m340.8 177.3 23.2-59.3" fill="none"/><path d="m340.8 177.3 21-53.7" fill="none" stroke="#000" stroke-linejoin="round" stroke-miterlimit="10"/><path d="m363.3 124.2.1-4.8-3.2 3.6z" stroke="#000" stroke-miterlimit="10"/><path d="m364.8 177.3 23.2-59.3" fill="none"/><path d="m367 171.7 21-53.7" fill="none" stroke="#000" stroke-linejoin="round" stroke-miterlimit="10"/><path d="m365.5 171.1-.1 4.8 3.2-3.6z" stroke="#000" stroke-miterlimit="10"/><path d="m452.8 177.3 23.2-59.3" fill="none"/><path d="m452.8 177.3 21-53.7" fill="none" stroke="#000" stroke-linejoin="round" stroke-miterlimit="10"/><path d="m475.3 124.2.1-4.8-3.2 3.6z" stroke="#000" stroke-miterlimit="10"/><path d="m476.8 177.3 23.2-59.3" fill="none"/><path d="m479 171.7 21-53.7" fill="none" stroke="#000" stroke-linejoin="round" stroke-miterlimit="10"/><path d="m477.5 171.1-.1 4.8 3.2-3.6z" stroke="#000" stroke-miterlimit="10"/><path d="m564.8 177.3 23.2-59.3" fill="none"/><path d="m564.8 177.3 21-53.7" fill="none" stroke="#000" stroke-linejoin="round" stroke-miterlimit="10"/><path d="m587.3 124.2.1-4.8-3.2 3.6z" stroke="#000" stroke-miterlimit="10"/><path d="m588.8 177.3 23.2-59.3" fill="none"/><path d="m591 171.7 21-53.7" fill="none" stroke="#000" stroke-linejoin="round" stroke-miterlimit="10"/><path d="m589.5 171.1-.1 4.8 3.2-3.6z" stroke="#000" stroke-miterlimit="10"/></g></svg>